# Blender v2.79 (sub 0) OBJ File: ''
# www.blender.org
mtllib sperated-planes.mtl
o Plane.004_Plane.005
v -1.000000 0.000000 2.000000
v -1.000000 0.000000 1.000000
v 0.000000 0.000000 2.000000
v 0.000000 0.000000 1.000000
vt 0.500000 0.500000
vt 0.000000 1.000000
vt 0.000000 0.500000
vt 0.500000 1.000000
vn 0.0000 1.0000 0.0000
usemtl None
s off
f 3/1/1 2/2/1 1/3/1
f 3/1/1 4/4/1 2/2/1
o Plane.003_Plane.004
v 2.000000 0.000000 1.000000
v 1.000000 0.000000 1.000000
v 2.000000 0.000000 0.000000
v 1.000000 0.000000 0.000000
vt 0.000000 0.000000
vt 0.500000 0.500000
vt 0.000000 0.500000
vt 0.500000 0.000000
vn 0.0000 1.0000 0.0000
usemtl None
s off
f 5/5/2 8/6/2 6/7/2
f 5/5/2 7/8/2 8/6/2
o Plane.002_Plane.003
v 1.000000 0.000000 -2.000000
v 1.000000 0.000000 -1.000000
v 0.000000 0.000000 -2.000000
v 0.000000 0.000000 -1.000000
vt 0.500000 0.500000
vt 1.000000 0.000000
vt 1.000000 0.500000
vt 0.500000 0.000000
vn 0.0000 1.0000 0.0000
usemtl None
s off
f 10/9/3 11/10/3 12/11/3
f 10/9/3 9/12/3 11/10/3
o Plane.000_Plane.002
v -2.000000 0.000000 -1.000000
v -2.000000 0.000000 0.000000
v -1.000000 0.000000 -1.000000
v -1.000000 0.000000 0.000000
vt 1.000000 1.000000
vt 0.500000 0.500000
vt 1.000000 0.500000
vt 0.500000 1.000000
vn 0.0000 1.0000 0.0000
usemtl None
s off
f 16/13/4 13/14/4 14/15/4
f 16/13/4 15/16/4 13/14/4
